<?xml version="1.0" encoding="UTF-8"?><svg id="Layer_2" xmlns="http://www.w3.org/2000/svg" viewBox="0 0 500 142.97"><defs><style>.cls-1{fill:#ee2031;}.cls-2{fill:#fff;}</style></defs><g id="Layer_1-2"><ellipse class="cls-2" cx="74.34" cy="118.59" rx="56.68" ry="22.11"/><path d="M273.19,39.27c0-15.93,11.9-27.94,27.04-27.94s27.16,12.01,27.16,27.94-11.89,27.72-27.16,27.72-27.04-11.9-27.04-27.72M261.08,39.27c0,21.77,17.17,39.05,39.16,39.05s39.27-17.28,39.27-39.05S322.23,0,300.24,0s-39.16,17.4-39.16,39.27M187.18,39.27c0-15.93,11.9-27.94,27.04-27.94s27.16,12.01,27.16,27.94-11.89,27.72-27.16,27.72-27.04-11.9-27.04-27.72M175.06,39.27c0,21.77,17.17,39.05,39.16,39.05,4.94,0,9.65-.9,13.92-2.47l16.27,19.07,9.31-8.42-14.36-17.06c8.64-7.18,14.14-17.95,14.14-30.18,0-21.88-17.28-39.27-39.27-39.27s-39.16,17.4-39.16,39.27M165.88,1.57h-12.01v75.18h12.01V1.57ZM64.19,42.75V.79h-12.01v41.97c0,14.03-7.97,23.23-19.75,23.23s-20.42-9.2-20.42-23.23V.79H0v41.97C0,63.51,12.91,77.54,32.43,77.54s31.76-14.03,31.76-34.79M85.41,1.57h-10.21v75.18h12.01V22.78l45.44,53.97h10.21V1.57h-12.12v54.98L85.41,1.57ZM413.17,39.27c0,15.82-11.9,27.72-27.16,27.72s-27.04-11.9-27.04-27.72,11.9-27.94,27.04-27.94,27.16,12.01,27.16,27.94M425.29,39.27c0-21.88-17.28-39.27-39.27-39.27s-39.16,17.4-39.16,39.27,17.17,39.05,39.16,39.05,39.27-17.28,39.27-39.05M459.94,39.27L497.53,1.57h-14.92l-32.99,32.54h-3.14V1.57h-12.01v75.18h12.01v-31.64h4.15l33.1,31.64h16.27l-40.06-37.48"/><path class="cls-1" d="M51.35,119.09c-.02-4.05-3.3-7.3-7.32-7.26-4.06.04-7.31,3.29-7.29,7.31.02,4.04,3.28,7.28,7.32,7.28,4.07-.01,7.32-3.27,7.3-7.32M112.01,119.15c0-4.06-3.25-7.32-7.3-7.32-4.04,0-7.31,3.26-7.32,7.28,0,4.03,3.26,7.29,7.3,7.31,4.05.01,7.32-3.23,7.33-7.26M118.45,119.01c.02,7.67-6.1,13.84-13.74,13.83-7.59,0-13.74-6.13-13.75-13.7-.01-7.58,6.13-13.73,13.74-13.76,7.54-.02,13.73,6.11,13.76,13.63M86.78,111.34c-2.49,2.48-5,4.98-7.53,7.52,2.54,2.53,5.04,5.03,7.51,7.5-1.67,1.67-3.33,3.34-4.98,4.99-2.47-2.47-4.97-4.97-7.51-7.51-2.57,2.57-5.07,5.08-7.63,7.63-1.68-1.68-3.35-3.35-5.01-5.01,2.54-2.54,5.04-5.04,7.55-7.54-2.55-2.55-5.06-5.05-7.55-7.53,1.71-1.71,3.38-3.38,5.04-5.05,2.47,2.48,4.98,4.98,7.52,7.52,2.56-2.57,5.07-5.08,7.55-7.56,1.7,1.7,3.37,3.37,5.04,5.04M57.79,119.11c0,7.6-6.16,13.74-13.75,13.73-7.61-.01-13.77-6.17-13.75-13.74.02-7.58,6.25-13.79,13.78-13.72,7.64.07,13.72,6.15,13.72,13.73M147.42,116.29c-.6-1.81-1.68-3.31-3-4.66-2.05-2.1-4.48-3.7-7.05-5.09-3.17-1.73-6.51-3.08-9.92-4.24-4.03-1.38-8.13-2.5-12.3-3.37-3.09-.65-6.19-1.22-9.31-1.73-2.63-.43-5.28-.75-7.94-1.05-2.4-.28-4.8-.5-7.21-.69-2.34-.18-4.67-.31-7.01-.4-3.23-.12-6.46-.19-9.02-.26-3.16.06-5.66.07-8.15.16-2.69.1-5.38.25-8.07.43-2.14.14-4.29.31-6.42.53-2.09.21-4.18.47-6.27.75-2.29.31-4.59.63-6.86,1.05-2.68.49-5.36,1.04-8.02,1.64-5.78,1.31-11.44,3.03-16.87,5.46-2.98,1.33-5.83,2.88-8.41,4.9-1.68,1.32-3.19,2.79-4.27,4.64-1.47,2.51-1.78,5.12-.64,7.84.83,1.99,2.21,3.57,3.79,4.98,1.89,1.69,4.03,3.04,6.26,4.23,2.76,1.47,5.64,2.67,8.58,3.73,3.04,1.09,6.14,2,9.27,2.79,1.92.48,3.86.9,5.79,1.31,1.57.33,3.16.62,4.74.9,1.02.19,2.05.35,3.08.51.9.14,1.8.27,2.71.4.89.13,1.79.25,2.68.36,1,.12,2.01.23,3.01.33,1.17.13,2.35.26,3.52.37.89.08,1.78.13,2.67.2,1.38.1,2.76.22,4.15.31,1.27.08,2.54.14,3.81.19,1.44.06,2.89.11,4.33.13,1.63.03,3.25.04,4.88.03,1.92-.01,3.85-.05,5.77-.08,1.55-.03,3.1-.08,4.65-.13.5-.02,1-.04,1.5-.07,1.19-.08,2.38-.17,3.57-.25.98-.07,1.96-.12,2.94-.2,1.25-.11,2.5-.25,3.75-.37,1.07-.11,2.14-.2,3.2-.33,1.39-.17,2.78-.37,4.16-.57,1.51-.22,3.02-.44,4.52-.71,1.99-.35,3.98-.69,5.96-1.11,3.68-.77,7.32-1.68,10.9-2.8,3.34-1.04,6.61-2.23,9.78-3.72,3.26-1.53,6.38-3.31,9.05-5.77,1.37-1.26,2.53-2.67,3.31-4.37.93-2.01,1.08-4.08.38-6.19"/><path d="M173.77,132.04l-.83-4.86c-.48,3.13-2.17,4.86-6.3,4.86h-.56v-4.7h.56c3.34,0,4.69-1.21,4.69-5v-12.38h-3.56v-4h6.95c1.35,0,1.82.56,1.82,2.13v14.56l2.35,9.38h-5.13Z"/><path d="M199.24,114.44v17.6h-5.21v-18.16c0-3.3-.91-3.91-2.78-3.91h-3v22.08h-8.21v-4h3v-18.08h-1.65v-4h11.43c4.43,0,6.43,2.04,6.43,8.47"/><polygon points="204.81 109.97 202.47 109.97 202.47 105.97 210.03 105.97 210.03 132.04 204.81 132.04 204.81 109.97"/><path d="M230.93,114.44v17.6h-9.08v-4h3.87v-14.43c0-3.3-.86-3.65-2.3-3.65l-4.82,22.08h-5.09l3.26-13.73-3.43-12.34h4.78l1.09,4.39h.09l.91-4.39h4.04c4.48,0,6.69,2,6.69,8.47"/><path d="M235.2,120.14c0-1.87.13-3.35.48-4.74l5.08.44c-.22,1.3-.35,2.48-.35,4.3v11.9h-5.21v-11.9ZM245.8,109.97h-11.3v-4h16.51v26.07h-5.21v-22.07Z"/><path d="M268.8,117.05v-7.08h-7.78v-7.13h4.74v3.13h8.26v11.08c0,5.61-1.7,10.56-5.48,14.99h-5.52c3.96-5.3,5.78-9.47,5.78-14.99"/><path d="M284.58,121.66c1.69-2.43,2.13-5.04,2.13-9.69v-2h-1.78v-4h7v6.52c0,4.74-1,7.96-3.78,11.25l-3.56-2.08ZM278.24,105.97h5.21v22.07h7c3.52,0,4.78-1.48,4.78-6.43v-11.65h-1.87v-4h7.08v15.47c0,7.99-3.04,10.6-9.95,10.6h-12.25v-26.07Z"/><polygon points="313.15 109.97 310.19 109.97 310.19 105.97 318.36 105.97 318.36 120.05 313.15 120.05 313.15 109.97"/><path d="M339.14,114.44v17.6h-9.08v-4h3.87v-14.43c0-3.3-.87-3.65-2.3-3.65l-4.83,22.08h-5.08l3.26-13.73-3.43-12.34h4.78l1.09,4.39h.08l.91-4.39h4.04c4.48,0,6.69,2,6.69,8.47"/><path d="M349.97,121.66c1.69-2.43,2.13-5.04,2.13-9.69v-2h-1.78v-4h6.99v6.52c0,4.74-1,7.96-3.78,11.25l-3.56-2.08ZM343.63,105.97h5.21v22.07h7c3.52,0,4.78-1.48,4.78-6.43v-11.65h-1.87v-4h7.08v15.47c0,7.99-3.04,10.6-9.95,10.6h-12.25v-26.07Z"/><path d="M376.23,114.44c0-3.34-.96-4.48-3.39-4.48h-4.56v-4h6.17c4.91,0,7,2.48,7,8.91v17.17h-5.21v-17.6Z"/><path d="M385.71,120.14c0-1.87.13-3.35.48-4.74l5.08.44c-.22,1.3-.34,2.48-.34,4.3v11.9h-5.22v-11.9ZM396.31,109.97h-11.3v-4h16.51v26.07h-5.21v-22.07Z"/><path d="M414.06,109.97h-2.08v-4h5.56c1.3,0,1.74.48,1.74,1.82v29.46h-5.21v-27.29Z"/><path d="M428.31,120.96l2.61,11.08h-7.95v-4h1.65l-1.34-6.78c-.7-3.52,1.17-6.12,4.17-6.78l-4.52-8.52h5.69l6.6,12.56c.87-.83,1.22-1.65,1.22-3.52v-5.04h-2.56v-4h7.78v7.91c0,4.26-1.43,7.04-4.3,8.6l5.04,9.56h-5.69l-7.34-13.95c-.96.35-1.44,1.26-1.04,2.87"/><polygon points="446.75 109.97 444.4 109.97 444.4 105.97 451.96 105.97 451.96 132.04 446.75 132.04 446.75 109.97"/><polygon points="470.3 128.05 470.3 132.04 455.62 132.04 455.62 128.05 463.01 128.05 463.01 109.97 455.62 109.97 455.62 105.97 468.22 105.97 468.22 128.05 470.3 128.05"/><polygon points="474.62 109.97 471.66 109.97 471.66 105.97 479.83 105.97 479.83 120.05 474.62 120.05 474.62 109.97"/><path d="M484.18,120.14c0-1.87.13-3.35.48-4.74l5.08.44c-.22,1.3-.34,2.48-.34,4.3v11.9h-5.22v-11.9ZM494.79,109.97h-11.3v-4h16.51v26.07h-5.21v-22.07Z"/></g></svg>